<svg width="19" height="22" viewBox="0 0 19 22" fill="none" xmlns="http://www.w3.org/2000/svg">
<path fill-rule="evenodd" clip-rule="evenodd" d="M4.92068 21.1493C7.1401 21.1493 9.33414 19.2648 9.33414 15.8695V12.3348C10.2113 12.826 11.2148 13.1103 12.2765 13.1103C15.7106 13.1103 18.5 10.2058 18.5 6.62999C18.5 3.06276 15.7115 0.149623 12.2765 0.149623C10.7139 0.149623 9.2792 0.755368 8.18752 1.75293C7.04762 0.332762 5.24877 -0.157974 3.6803 0.336055C1.93875 0.884604 0.5 2.67205 0.5 5.42937V15.8695C0.5 19.2648 2.70129 21.1493 4.92068 21.1493ZM12.5433 12.0514C12.4543 12.0562 12.3666 12.0514 12.2765 12.0514C11.1829 12.0514 10.1676 11.7025 9.33414 11.1043V10.023L17.3101 5.23548C17.4238 5.6816 17.4832 6.14652 17.4832 6.62999C17.4832 9.54103 15.3032 11.9067 12.5433 12.0514ZM8.31731 10.12H1.51683V5.42937C1.51683 3.04022 2.65206 1.7747 3.97598 1.3577C5.29882 0.941012 6.82301 1.40544 7.67549 2.81187C8.17963 3.68096 8.31034 4.6332 8.31731 5.42937V10.12ZM9.33414 6.77913V5.42937C9.33414 4.3436 9.11965 3.41416 8.75 2.64781C9.67324 1.75449 10.9125 1.20855 12.2765 1.20855C13.7229 1.20855 15.0338 1.81801 15.976 2.80441L9.33414 6.77913Z" fill="black"/>
</svg>
