<svg width="19" height="24" viewBox="0 0 19 24" fill="none" xmlns="http://www.w3.org/2000/svg">
<path d="M5.54281 5.23807C5.02668 5.23807 4.5323 5.46133 4.22182 5.83221C3.99441 6.0969 3.87378 6.41737 3.87378 6.75768C3.87378 6.76487 3.87378 6.77746 3.87576 6.79368C3.8896 7.37524 4.27324 7.90276 4.85462 8.14044C5.0682 8.23046 5.29956 8.27548 5.54281 8.27548C5.91656 8.27548 6.26855 8.16565 6.55529 7.96039C6.97057 7.6741 7.20985 7.23479 7.20985 6.75768C7.20985 5.92043 6.46234 5.23807 5.54281 5.23807ZM5.54281 7.38785C5.15993 7.38785 4.85067 7.10404 4.85067 6.75768C4.85067 6.40906 5.15993 6.12752 5.54281 6.12752C5.92323 6.12752 6.23494 6.40906 6.23494 6.75768C6.23494 7.10404 5.92323 7.38785 5.54281 7.38785Z" fill="black"/>
<path d="M2.10898 3.00651L1.63124 3.44118C1.55413 3.5114 1.55413 3.62661 1.63124 3.69685L3.83541 5.7052C3.85955 5.6732 3.8837 5.6412 3.9102 5.61034C4.29315 5.15302 4.90456 4.87793 5.54281 4.87793C6.68008 4.87793 7.6053 5.7212 7.6053 6.75771C7.6053 7.34902 7.30964 7.89207 6.79402 8.24741C6.76298 8.26966 6.73054 8.28983 6.69827 8.31023L8.86117 10.2795L8.70974 10.4174C8.63249 10.4877 8.63249 10.6017 8.70974 10.672C8.74836 10.7072 8.79896 10.7247 8.84956 10.7247C8.90015 10.7247 8.95075 10.7072 8.98937 10.672L9.27615 10.4109C9.27799 10.4094 9.28047 10.4088 9.28226 10.4072L9.75968 9.97227L11.8036 11.8332C11.8412 11.8656 11.8906 11.8854 11.944 11.8854C11.9954 11.8854 12.0468 11.8656 12.0824 11.8332L13.7653 10.301C13.8424 10.2308 13.8424 10.1173 13.7653 10.0471L11.7216 8.18475L12.1991 7.74973L12.1997 7.74894L12.4906 7.48406C12.5678 7.41373 12.5678 7.29979 12.4906 7.22946C12.4133 7.15913 12.2882 7.15913 12.211 7.22946L12.0597 7.36713L4.83086 0.785468C4.75375 0.715247 4.62719 0.715247 4.55006 0.785468L4.07232 1.22014L2.79008 0.0526825C2.71097 -0.0175608 2.58639 -0.0175608 2.50926 0.0526825L0.82639 1.58489C0.749276 1.65509 0.749276 1.76852 0.82639 1.83874L2.10898 3.00651ZM7.55838 4.79828C7.63562 4.86861 7.63562 4.98255 7.55838 5.05288C7.51975 5.08805 7.46916 5.10563 7.41856 5.10563C7.36796 5.10563 7.31737 5.08805 7.27874 5.05288L3.85065 1.93178L4.13028 1.67718L7.55838 4.79828Z" fill="black"/>
<path d="M18.8022 11.9719H13.6251C13.5163 11.9719 13.4274 12.0529 13.4274 12.1519V13.947C13.4274 14.046 13.5163 14.127 13.6251 14.127H15.2401C14.79 16.3568 12.9831 18.1637 10.6068 18.7876C10.886 19.1356 11.0405 19.5638 11.0405 19.9984C11.0405 20.1498 11.0214 20.2983 10.9857 20.4431H10.9854C10.9812 20.46 10.9761 20.4766 10.9716 20.4934C10.9645 20.5194 10.9581 20.5456 10.9498 20.5713L10.9504 20.5712C10.9373 20.614 10.9226 20.6564 10.9059 20.6982C10.5843 21.5079 9.73077 22.0527 8.78218 22.0527C7.88148 22.0527 7.07135 21.5678 6.71293 20.8156C6.69149 20.7776 6.67624 20.7395 6.66233 20.7053C6.65315 20.6823 6.64606 20.6592 6.63805 20.6361L6.63839 20.6362C6.62304 20.5933 6.61028 20.5503 6.59805 20.5072C6.59351 20.4905 6.58851 20.4738 6.58435 20.457C6.546 20.3066 6.5258 20.1545 6.5258 19.9984C6.5258 19.5519 6.68782 19.1114 6.98194 18.7582C6.98694 18.7514 6.99564 18.7416 7.00461 18.7316C4.19769 17.9224 2.21284 15.6018 2.21284 13.0413C2.21284 11.4171 3.15179 9.66007 4.6373 8.44198C4.00737 8.16395 3.57717 7.60289 3.49793 6.96977C1.50047 8.53772 0.235325 10.8663 0.235325 13.0413C0.235325 16.3106 2.63635 19.3112 5.98888 20.4431H1.00458C0.45088 20.4431 0 20.8536 0 21.3595V22.384C0 22.8881 0.45088 23.2987 1.00458 23.2987H16.5617C17.1154 23.2987 17.5663 22.8881 17.5663 22.384V21.3595C17.5663 20.8536 17.1154 20.4431 16.5617 20.4431H11.4289C14.5233 19.5352 16.7917 17.1092 17.2457 14.127H18.8022C18.911 14.127 19 14.046 19 13.947V12.1519C19 12.0529 18.911 11.9719 18.8022 11.9719Z" fill="black"/>
<path d="M7.34656 18.9217C7.32876 18.9397 7.31096 18.9577 7.29712 18.9757C7.05586 19.2656 6.92139 19.6293 6.92139 19.9984C6.92139 20.1964 6.95698 20.3891 7.02818 20.5674C7.04202 20.6016 7.05586 20.6376 7.0697 20.6592C7.36238 21.2875 8.03473 21.6927 8.78224 21.6927C9.56533 21.6927 10.2693 21.2425 10.5343 20.5746C10.6075 20.3927 10.6451 20.2001 10.6451 19.9984C10.6451 19.6293 10.5106 19.2656 10.2693 18.9757C9.91337 18.5472 9.37153 18.3023 8.78224 18.3023C8.2226 18.3023 7.69658 18.5292 7.34656 18.9217ZM9.6563 19.9984C9.6563 20.4359 9.26475 20.7924 8.78224 20.7924C8.3017 20.7924 7.91015 20.4359 7.91015 19.9984C7.91015 19.5591 8.3017 19.2026 8.78224 19.2026C9.26475 19.2026 9.6563 19.5591 9.6563 19.9984Z" fill="black"/>
</svg>
