<svg width="23" height="21" viewBox="0 0 23 21" fill="none" xmlns="http://www.w3.org/2000/svg">
<path d="M8.07021 9.82229C10.6784 9.82229 12.7928 7.71444 12.7928 5.11427C12.7928 2.5141 10.6784 0.40625 8.07021 0.40625C5.46201 0.40625 3.34766 2.5141 3.34766 5.11427C3.34766 7.71444 5.46201 9.82229 8.07021 9.82229Z" fill="black"/>
<path d="M13.0395 10.3839H11.2106L8.60242 12.5148C8.50982 12.5918 8.4558 12.6995 8.4558 12.8149V14.9381C8.4558 15.1381 8.30919 15.315 8.10856 15.3381C7.87706 15.3612 7.68414 15.1766 7.68414 14.9535V12.4456C7.68414 12.4379 7.68414 12.4302 7.68414 12.4302C7.68414 12.4148 7.68414 12.4071 7.69186 12.3917C7.69186 12.3764 7.69958 12.3687 7.69958 12.3533C7.69958 12.3379 7.70729 12.3302 7.70729 12.3148C7.71501 12.2994 7.71501 12.2917 7.72273 12.2764C7.73044 12.2687 7.73044 12.2533 7.73816 12.2456C7.74588 12.2379 7.75359 12.2225 7.76131 12.2148C7.76903 12.2071 7.77674 12.1994 7.78446 12.184C7.79218 12.1763 7.79989 12.161 7.81533 12.1533C7.82304 12.1456 7.82304 12.1456 7.83076 12.1379L8.48667 11.6071C8.58699 11.5225 8.51754 11.3609 8.38635 11.3686C8.28604 11.3763 8.17801 11.384 8.07769 11.384C7.19028 11.384 6.37232 11.007 5.72413 10.3685H3.11592C1.67292 10.3685 0.5 11.8379 0.5 13.6534V20.3462C0.5 20.6077 0.716064 20.8231 0.978428 20.8231H15.1924C15.4548 20.8231 15.6708 20.6077 15.6708 20.3462V13.6688C15.6554 11.8533 14.4825 10.3839 13.0395 10.3839Z" fill="black"/>
<path d="M19.7292 8.75298C19.5131 8.75298 19.3434 8.58374 19.3434 8.36834C19.3434 8.15294 19.5131 7.9837 19.7292 7.9837H22.4995V7.57598H20.3311C20.115 7.57598 19.9453 7.40674 19.9453 7.19134C19.9453 6.97594 20.115 6.80669 20.3311 6.80669H22.4995V6.39897H20.3311C20.115 6.39897 19.9453 6.22973 19.9453 6.01433C19.9453 5.79893 20.115 5.62969 20.3311 5.62969H22.4995V5.1835H19.7292C19.5131 5.1835 19.3434 5.01426 19.3434 4.79886C19.3434 4.58346 19.5131 4.41422 19.7292 4.41422H22.4917C22.43 3.91418 22.0056 3.52954 21.4963 3.52954H18.5871C18.0315 3.52954 17.584 3.97573 17.584 4.52961V9.3761C17.584 9.92999 18.7338 11.5609 19.2894 11.5609H20.7941C21.3497 11.5609 22.4995 9.92999 22.4995 9.3761V8.75298H19.7292Z" fill="black"/>
<path d="M19.2441 12.4764V13.6303C19.2441 13.7072 19.3059 13.7765 19.3908 13.7765H20.6486C20.7257 13.7765 20.7952 13.7149 20.7952 13.6303V12.4764C20.7952 12.3994 20.7334 12.3302 20.6486 12.3302C20.3553 12.3302 19.684 12.3302 19.3908 12.3302C19.3059 12.3302 19.2441 12.3917 19.2441 12.4764Z" fill="black"/>
<path d="M19.8758 14.538C19.7832 14.538 19.7138 14.6149 19.7138 14.6995V18.2998C19.7138 18.969 18.9575 20.123 18.1859 20.123H16.5963C16.5037 20.123 16.4342 20.1999 16.4342 20.2845V20.4615C16.4342 20.5384 16.4188 20.6153 16.4033 20.6845C16.3725 20.7846 16.4496 20.8923 16.5577 20.8923H18.1936C19.4591 20.8923 20.4931 19.3229 20.4931 18.2998V14.6995C20.4931 14.6072 20.416 14.538 20.3311 14.538H19.8758Z" fill="black"/>
</svg>
